<mxfile host="app.diagrams.net" modified="2023-06-26T13:51:06.262Z" agent="Mozilla/5.0 (X11; Ubuntu; Linux x86_64; rv:109.0) Gecko/20100101 Firefox/114.0" etag="OSPoSFG4DT_lopAW-bX5" version="21.3.2" type="device">
  <diagram name="Seite-1" id="ARyRlDkt1GhSACOJTn0P">
    <mxGraphModel dx="1434" dy="766" grid="1" gridSize="10" guides="1" tooltips="1" connect="1" arrows="1" fold="1" page="1" pageScale="1" pageWidth="827" pageHeight="1169" math="0" shadow="0">
      <root>
        <mxCell id="0" />
        <mxCell id="1" parent="0" />
        <mxCell id="vgrdmHIHCeczM_WQEUr8-2" value="&lt;div&gt;&lt;font color=&quot;#191919&quot;&gt;dolibarr&amp;nbsp; &lt;b&gt;ns&lt;/b&gt;&lt;/font&gt;&lt;br&gt;&lt;/div&gt;" style="rounded=1;whiteSpace=wrap;html=1;dashed=1;arcSize=4;align=left;verticalAlign=top;labelPosition=center;verticalLabelPosition=middle;spacingTop=5;spacingLeft=15;" vertex="1" parent="1">
          <mxGeometry x="50" y="130" width="710" height="580" as="geometry" />
        </mxCell>
        <mxCell id="vgrdmHIHCeczM_WQEUr8-1" value="&lt;div&gt;&lt;br&gt;&lt;/div&gt;&lt;div&gt;webserver&lt;br&gt;&lt;/div&gt;&lt;div&gt;&lt;br&gt;&lt;/div&gt;&lt;div&gt;&lt;b&gt;pod&lt;/b&gt;&lt;br&gt;&lt;/div&gt;" style="whiteSpace=wrap;html=1;shape=mxgraph.basic.pentagon;fillColor=#326ce5;strokeColor=none;fontColor=#FFFFFF;" vertex="1" parent="1">
          <mxGeometry x="281" y="423" width="100" height="90" as="geometry" />
        </mxCell>
        <mxCell id="vgrdmHIHCeczM_WQEUr8-4" value="&lt;div&gt;&lt;br&gt;&lt;/div&gt;&lt;div&gt;db&lt;br&gt;&lt;/div&gt;&lt;div&gt;&lt;br&gt;&lt;/div&gt;&lt;div&gt;&lt;b&gt;pod&lt;/b&gt;&lt;br&gt;&lt;/div&gt;" style="whiteSpace=wrap;html=1;shape=mxgraph.basic.pentagon;fillColor=#326ce5;strokeColor=none;fontColor=#FFFFFF;" vertex="1" parent="1">
          <mxGeometry x="551" y="423" width="100" height="90" as="geometry" />
        </mxCell>
        <mxCell id="vgrdmHIHCeczM_WQEUr8-5" value="&lt;div&gt;&lt;br&gt;&lt;/div&gt;&lt;div&gt;dolibarr-custom&lt;br&gt;&lt;/div&gt;&lt;div&gt;&lt;br&gt;&lt;/div&gt;&lt;div&gt;&lt;b&gt;pv&lt;/b&gt;&lt;br&gt;&lt;/div&gt;" style="whiteSpace=wrap;html=1;shape=mxgraph.basic.pentagon;fillColor=#F7BB43;strokeColor=none;fontColor=#191919;gradientColor=none;" vertex="1" parent="1">
          <mxGeometry x="141" y="559" width="100" height="90" as="geometry" />
        </mxCell>
        <mxCell id="vgrdmHIHCeczM_WQEUr8-6" value="&lt;div&gt;dolibarr-documents&lt;br&gt;&lt;/div&gt;&lt;div&gt;&lt;br&gt;&lt;/div&gt;&lt;div&gt;&lt;b&gt;pv&lt;/b&gt;&lt;br&gt;&lt;/div&gt;" style="whiteSpace=wrap;html=1;shape=mxgraph.basic.pentagon;fillColor=#F7BB43;strokeColor=none;fontColor=#191919;gradientColor=none;" vertex="1" parent="1">
          <mxGeometry x="281" y="559" width="100" height="90" as="geometry" />
        </mxCell>
        <mxCell id="vgrdmHIHCeczM_WQEUr8-7" value="&lt;div&gt;&lt;br&gt;&lt;/div&gt;&lt;div&gt;db-data&lt;br&gt;&lt;/div&gt;&lt;div&gt;&lt;br&gt;&lt;/div&gt;&lt;div&gt;&lt;b&gt;pv&lt;/b&gt;&lt;br&gt;&lt;/div&gt;" style="whiteSpace=wrap;html=1;shape=mxgraph.basic.pentagon;fillColor=#F7BB43;strokeColor=none;fontColor=#191919;gradientColor=none;" vertex="1" parent="1">
          <mxGeometry x="551" y="559" width="100" height="90" as="geometry" />
        </mxCell>
        <mxCell id="vgrdmHIHCeczM_WQEUr8-8" value="" style="endArrow=none;html=1;rounded=0;exitX=0.9;exitY=0.244;exitDx=0;exitDy=0;exitPerimeter=0;entryX=0.07;entryY=0.744;entryDx=0;entryDy=0;entryPerimeter=0;" edge="1" parent="1" source="vgrdmHIHCeczM_WQEUr8-1" target="vgrdmHIHCeczM_WQEUr8-16">
          <mxGeometry width="50" height="50" relative="1" as="geometry">
            <mxPoint x="361" y="399" as="sourcePoint" />
            <mxPoint x="411" y="349" as="targetPoint" />
          </mxGeometry>
        </mxCell>
        <mxCell id="vgrdmHIHCeczM_WQEUr8-9" value="" style="endArrow=none;html=1;rounded=0;exitX=0.78;exitY=0.178;exitDx=0;exitDy=0;exitPerimeter=0;entryX=0.12;entryY=0.878;entryDx=0;entryDy=0;entryPerimeter=0;" edge="1" parent="1" source="vgrdmHIHCeczM_WQEUr8-5" target="vgrdmHIHCeczM_WQEUr8-1">
          <mxGeometry width="50" height="50" relative="1" as="geometry">
            <mxPoint x="391" y="454" as="sourcePoint" />
            <mxPoint x="561" y="454" as="targetPoint" />
          </mxGeometry>
        </mxCell>
        <mxCell id="vgrdmHIHCeczM_WQEUr8-10" value="" style="endArrow=none;html=1;rounded=0;" edge="1" parent="1" source="vgrdmHIHCeczM_WQEUr8-6" target="vgrdmHIHCeczM_WQEUr8-1">
          <mxGeometry width="50" height="50" relative="1" as="geometry">
            <mxPoint x="240" y="569" as="sourcePoint" />
            <mxPoint x="302" y="499" as="targetPoint" />
          </mxGeometry>
        </mxCell>
        <mxCell id="vgrdmHIHCeczM_WQEUr8-11" value="" style="endArrow=none;html=1;rounded=0;" edge="1" parent="1" source="vgrdmHIHCeczM_WQEUr8-7" target="vgrdmHIHCeczM_WQEUr8-4">
          <mxGeometry width="50" height="50" relative="1" as="geometry">
            <mxPoint x="250" y="579" as="sourcePoint" />
            <mxPoint x="312" y="509" as="targetPoint" />
          </mxGeometry>
        </mxCell>
        <mxCell id="vgrdmHIHCeczM_WQEUr8-12" value="&lt;div&gt;&lt;br&gt;&lt;/div&gt;&lt;div&gt;dolibarr-ingress&lt;br&gt;&lt;/div&gt;&lt;div&gt;&lt;b&gt;&lt;br&gt;&lt;/b&gt;&lt;/div&gt;&lt;div&gt;&lt;b&gt;ingress&lt;/b&gt;&lt;br&gt;&lt;/div&gt;" style="whiteSpace=wrap;html=1;shape=mxgraph.basic.pentagon;fillColor=#22ABE5;strokeColor=none;fontColor=#FFFFFF;" vertex="1" parent="1">
          <mxGeometry x="190" y="178" width="100" height="90" as="geometry" />
        </mxCell>
        <mxCell id="vgrdmHIHCeczM_WQEUr8-13" value="" style="endArrow=none;html=1;rounded=0;exitX=0.24;exitY=0.178;exitDx=0;exitDy=0;exitPerimeter=0;entryX=0.82;entryY=0.9;entryDx=0;entryDy=0;entryPerimeter=0;" edge="1" parent="1" source="vgrdmHIHCeczM_WQEUr8-14" target="vgrdmHIHCeczM_WQEUr8-12">
          <mxGeometry width="50" height="50" relative="1" as="geometry">
            <mxPoint x="341" y="308" as="sourcePoint" />
            <mxPoint x="391" y="258" as="targetPoint" />
          </mxGeometry>
        </mxCell>
        <mxCell id="vgrdmHIHCeczM_WQEUr8-14" value="&lt;div&gt;&lt;br&gt;&lt;/div&gt;&lt;div&gt;webserver&lt;br&gt;&lt;/div&gt;&lt;div&gt;&lt;br&gt;&lt;/div&gt;&lt;div&gt;&lt;b&gt;service&lt;/b&gt;&lt;br&gt;&lt;/div&gt;" style="whiteSpace=wrap;html=1;shape=mxgraph.basic.pentagon;fillColor=#326ce5;strokeColor=none;fontColor=#FFFFFF;" vertex="1" parent="1">
          <mxGeometry x="281" y="280" width="100" height="90" as="geometry" />
        </mxCell>
        <mxCell id="vgrdmHIHCeczM_WQEUr8-15" value="" style="endArrow=none;html=1;rounded=0;" edge="1" parent="1" source="vgrdmHIHCeczM_WQEUr8-1" target="vgrdmHIHCeczM_WQEUr8-14">
          <mxGeometry width="50" height="50" relative="1" as="geometry">
            <mxPoint x="341" y="434" as="sourcePoint" />
            <mxPoint x="391" y="384" as="targetPoint" />
          </mxGeometry>
        </mxCell>
        <mxCell id="vgrdmHIHCeczM_WQEUr8-16" value="&lt;div&gt;&lt;br&gt;&lt;/div&gt;&lt;div&gt;db&lt;br&gt;&lt;/div&gt;&lt;div&gt;&lt;br&gt;&lt;/div&gt;&lt;div&gt;&lt;b&gt;service&lt;/b&gt;&lt;br&gt;&lt;/div&gt;" style="whiteSpace=wrap;html=1;shape=mxgraph.basic.pentagon;fillColor=#326ce5;strokeColor=none;fontColor=#FFFFFF;" vertex="1" parent="1">
          <mxGeometry x="551" y="280" width="100" height="90" as="geometry" />
        </mxCell>
        <mxCell id="vgrdmHIHCeczM_WQEUr8-17" value="" style="endArrow=none;html=1;rounded=0;" edge="1" parent="1" source="vgrdmHIHCeczM_WQEUr8-4" target="vgrdmHIHCeczM_WQEUr8-16">
          <mxGeometry width="50" height="50" relative="1" as="geometry">
            <mxPoint x="391" y="452" as="sourcePoint" />
            <mxPoint x="561" y="361" as="targetPoint" />
          </mxGeometry>
        </mxCell>
        <mxCell id="vgrdmHIHCeczM_WQEUr8-18" value="internet" style="ellipse;shape=cloud;whiteSpace=wrap;html=1;" vertex="1" parent="1">
          <mxGeometry x="180" y="30" width="120" height="80" as="geometry" />
        </mxCell>
        <mxCell id="vgrdmHIHCeczM_WQEUr8-19" value="" style="endArrow=none;html=1;rounded=0;" edge="1" parent="1" source="vgrdmHIHCeczM_WQEUr8-12" target="vgrdmHIHCeczM_WQEUr8-18">
          <mxGeometry width="50" height="50" relative="1" as="geometry">
            <mxPoint x="330" y="370" as="sourcePoint" />
            <mxPoint x="380" y="320" as="targetPoint" />
          </mxGeometry>
        </mxCell>
      </root>
    </mxGraphModel>
  </diagram>
</mxfile>
